HIERARCHY
ROOT Pelvis
{
	OFFSET 0.000000 0.000000 0.000000
	CHANNELS 6 Xposition Yposition Zposition Xrotation Yrotation Zrotation
	JOINT LeftUpLeg_virtual
	{
		OFFSET 0.000000 0.000000 0.000000
		CHANNELS 3 Xrotation Yrotation Zrotation
		JOINT LeftUpLeg
		{
			OFFSET 18.735201 -5.666702 -4.541200
			CHANNELS 3 Xrotation Yrotation Zrotation
			JOINT LeftLeg
			{
				OFFSET -0.021200 -31.938179 0.493100
				CHANNELS 3 Xrotation Yrotation Zrotation
				JOINT LeftFoot
				{
					OFFSET 0.021200 -31.938179 -4.336299
					CHANNELS 3 Xrotation Yrotation Zrotation
					JOINT LeftToeBase
					{
						OFFSET 0.943001 -26.722000 15.023500
						CHANNELS 3 Xrotation Yrotation Zrotation
						End Site
						{
							OFFSET 0 0 0
						}
					}
				}
			}
		}
	}
	JOINT RightUpLeg_virtual
	{
		OFFSET 0.000000 0.000000 0.000000
		CHANNELS 3 Xrotation Yrotation Zrotation
		JOINT RightUpLeg
		{
			OFFSET -18.735201 -5.666702 -4.541200
			CHANNELS 3 Xrotation Yrotation Zrotation
			JOINT RightLeg
			{
				OFFSET 0.018946 -31.938133 0.493100
				CHANNELS 3 Xrotation Yrotation Zrotation
				JOINT RightFoot
				{
					OFFSET -0.018946 -31.938126 -4.336299
					CHANNELS 3 Xrotation Yrotation Zrotation
					JOINT RightToeBase
					{
						OFFSET -0.943001 -26.722004 15.023500
						CHANNELS 3 Xrotation Yrotation Zrotation
						End Site
						{
							OFFSET 0 0 0
						}
					}
				}
			}
		}
	}
	JOINT Hips_virtual
	{
		OFFSET 0.000000 0.000000 0.000000
		CHANNELS 3 Xrotation Yrotation Zrotation
		JOINT Hips
		{
			OFFSET -0.000000 -0.000000 -0.000000
			CHANNELS 3 Xrotation Yrotation Zrotation
			JOINT Spine
			{
				OFFSET 0.000000 10.199997 -0.299500
				CHANNELS 3 Xrotation Yrotation Zrotation
				JOINT Spine1
				{
					OFFSET 0.000000 11.900002 -1.516600
					CHANNELS 3 Xrotation Yrotation Zrotation
					JOINT Spine2
					{
						OFFSET 0.000000 13.600006 -2.842500
						CHANNELS 3 Xrotation Yrotation Zrotation
						JOINT Neck_virtual
						{
							OFFSET 0.000000 0.000000 0.000000
							CHANNELS 3 Xrotation Yrotation Zrotation
							JOINT Neck
							{
								OFFSET 0.000000 9.624100 -2.890100
								CHANNELS 3 Xrotation Yrotation Zrotation
								JOINT Head
								{
									OFFSET 0.000000 14.068802 -1.351900
									CHANNELS 3 Xrotation Yrotation Zrotation
									End Site
									{
										OFFSET 0 0 0
									}
								}
							}
						}
						JOINT LeftShoulder_virtual
						{
							OFFSET 0.000000 0.000000 0.000000
							CHANNELS 3 Xrotation Yrotation Zrotation
							JOINT LeftShoulder
							{
								OFFSET 15.263000 10.923401 -0.547700
								CHANNELS 3 Xrotation Yrotation Zrotation
								JOINT LeftArm
								{
									OFFSET 25.438599 -2.830597 -13.032500
									CHANNELS 3 Xrotation Yrotation Zrotation
									JOINT LeftForeArm
									{
										OFFSET 29.960503 0.000000 0.000000
										CHANNELS 3 Xrotation Yrotation Zrotation
										JOINT LeftHand
										{
											OFFSET 27.849251 0.000000 0.000000
											CHANNELS 3 Xrotation Yrotation Zrotation
											End Site
											{
												OFFSET 0 0 0
											}
										}
									}
								}
							}
						}
						JOINT RightShoulder_virtual
						{
							OFFSET 0.000000 0.000000 0.000000
							CHANNELS 3 Xrotation Yrotation Zrotation
							JOINT RightShoulder
							{
								OFFSET -15.263000 10.923401 -0.547700
								CHANNELS 3 Xrotation Yrotation Zrotation
								JOINT RightArm
								{
									OFFSET -25.438599 -2.830597 -13.032500
									CHANNELS 3 Xrotation Yrotation Zrotation
									JOINT RightForeArm
									{
										OFFSET -29.960503 0.000000 0.000000
										CHANNELS 3 Xrotation Yrotation Zrotation
										JOINT RightHand
										{
											OFFSET -27.849251 0.000000 0.000000
											CHANNELS 3 Xrotation Yrotation Zrotation
											End Site
											{
												OFFSET 0 0 0
											}
										}
									}
								}
							}
						}
					}
				}
			}
		}
	}
}
MOTION
Frames: 8
Frame Time: 0.03333333
1.000890 112.103790 1.782272 0.000000 0.000000 0.000000 -92.611764 1.458714 4.274403 -7.396384 12.765964 16.470979 9.123632 7.019345 4.029039 38.017796 27.736141 -32.217541 0.000000 0.000000 0.000000 -92.611764 1.458714 4.274403 -12.783960 -14.874813 -21.765678 16.141077 -5.551992 -7.168122 34.347806 -29.828676 34.283786 0.000000 0.000000 0.000000 -92.611764 1.458714 4.274403 0.000000 0.000000 0.000000 4.273768 -0.741888 0.466030 5.662843 -1.787562 -1.408118 0.000000 0.000000 0.000000 5.682635 -1.863436 -1.213449 -1.098775 -0.166864 0.720529 0.000000 0.000000 0.000000 5.682635 -1.863436 -1.213449 0.833464 0.643752 -7.065388 35.730902 -29.399969 -39.106043 -0.000293 -86.008747 -0.000270 0.000000 0.000000 0.000000 5.682635 -1.863436 -1.213449 1.050847 -2.047990 18.147311 -39.666074 52.653409 55.025879 179.999896 79.735130 -179.999923 0.000000 0.000000 0.000000 
0.959618 112.084625 1.617371 0.000000 0.000000 0.000000 -92.824497 1.328669 4.264900 -6.886962 12.949193 16.435457 9.421318 6.977177 4.107713 37.830915 28.482097 -32.804350 0.000000 0.000000 0.000000 -92.824497 1.328669 4.264900 -12.724126 -15.103826 -21.885557 16.070305 -5.427997 -7.066878 34.741494 -29.806775 34.179551 0.000000 0.000000 0.000000 -92.824497 1.328669 4.264900 0.000000 0.000000 0.000000 4.235790 -0.731907 0.420736 5.577424 -1.781749 -1.434907 0.000000 0.000000 0.000000 5.572908 -1.863084 -1.240883 -1.107525 -0.170851 0.745090 0.000000 0.000000 0.000000 5.572908 -1.863084 -1.240883 0.795790 0.368579 -6.754034 35.724338 -29.362628 -39.579095 -0.000149 -85.982342 -0.000158 0.000000 0.000000 0.000000 5.572908 -1.863084 -1.240883 1.046859 -1.901962 17.705029 -41.695563 52.153228 56.287343 179.998721 81.047919 -179.998748 0.000000 0.000000 0.000000 
0.924343 112.062294 1.518082 0.000000 0.000000 0.000000 -92.970527 1.281458 4.252265 -6.569102 12.993867 16.440335 9.742936 6.926456 4.187746 37.757832 28.878211 -33.146034 0.000000 0.000000 0.000000 -92.970527 1.281458 4.252265 -12.654307 -15.272236 -22.014905 15.999066 -5.347712 -6.944150 35.153201 -29.779222 34.117212 0.000000 0.000000 0.000000 -92.970527 1.281458 4.252265 0.000000 0.000000 0.000000 4.229663 -0.714619 0.383746 5.498821 -1.756072 -1.456301 0.000000 0.000000 0.000000 5.557734 -1.836371 -1.256271 -1.082449 -0.173021 0.758756 0.000000 0.000000 0.000000 5.557734 -1.836371 -1.256271 0.752572 0.149308 -6.556121 35.791690 -29.405580 -39.728465 0.000153 -85.965608 0.000170 0.000000 0.000000 0.000000 5.557734 -1.836371 -1.256271 1.031406 -1.759339 17.391854 -42.645171 51.582067 56.777095 179.999909 82.161732 -179.999909 0.000000 0.000000 0.000000 
0.891547 112.053513 1.459984 0.000000 0.000000 0.000000 -93.005969 1.210714 4.214298 -6.499512 12.938905 16.508355 10.082603 6.875511 4.272422 37.808990 28.878156 -33.172699 0.000000 0.000000 0.000000 -93.005969 1.210714 4.214298 -12.667284 -15.339182 -22.032800 15.947279 -5.237005 -6.926240 35.576181 -29.754415 34.061836 0.000000 0.000000 0.000000 -93.005969 1.210714 4.214298 0.000000 0.000000 0.000000 4.240660 -0.695491 0.367055 5.508404 -1.714589 -1.460459 0.000000 0.000000 0.000000 5.567292 -1.797903 -1.270685 -1.000693 -0.174020 0.769100 0.000000 0.000000 0.000000 5.567292 -1.797903 -1.270685 0.749818 0.216471 -6.485455 35.680369 -29.527444 -39.791770 -0.000094 -85.903467 -0.000060 0.000000 0.000000 0.000000 5.567292 -1.797903 -1.270685 1.021787 -1.623930 17.128496 -43.055419 51.175452 56.795338 179.997792 83.129385 -179.997778 0.000000 0.000000 0.000000 
0.859508 112.055946 1.454010 0.000000 0.000000 0.000000 -92.930099 1.137654 4.159082 -6.613732 12.843505 16.578715 10.391113 6.825514 4.355347 37.899470 28.869383 -33.185314 0.000000 0.000000 0.000000 -92.930099 1.137654 4.159082 -12.755581 -15.332296 -21.987721 15.853574 -5.208505 -6.939651 36.073371 -29.726763 34.029461 0.000000 0.000000 0.000000 -92.930099 1.137654 4.159082 0.000000 0.000000 -0.000001 4.266717 -0.675260 0.366400 5.555462 -1.676085 -1.446812 0.000000 0.000000 0.000000 5.614020 -1.763747 -1.275981 -0.876003 -0.161079 0.735878 0.000000 0.000000 0.000000 5.614020 -1.763747 -1.275981 0.758833 0.358508 -6.445955 35.602030 -29.770633 -39.668704 0.000144 -85.806560 0.000140 0.000000 0.000000 0.000000 5.614020 -1.763747 -1.275981 1.056735 -1.497105 16.955110 -42.526295 51.008679 56.077124 179.999937 83.699822 -179.999964 0.000000 0.000000 0.000000 
0.829244 112.066254 1.490082 0.000000 0.000000 0.000000 -92.790681 1.091935 4.118204 -6.825751 12.690935 16.606295 10.544508 6.784166 4.435624 38.058634 28.853161 -33.184153 0.000000 0.000000 0.000000 -92.790681 1.091935 4.118204 -12.937227 -15.286822 -21.931898 15.806996 -5.224655 -6.990316 36.652752 -29.693585 34.013400 0.000000 0.000000 0.000000 -92.790681 1.091935 4.118204 0.000000 0.000000 0.000001 4.307677 -0.654574 0.371764 5.642405 -1.643771 -1.447738 0.000000 0.000000 0.000000 5.701237 -1.728346 -1.276003 -0.681472 -0.144651 0.697334 0.000000 0.000000 0.000000 5.701237 -1.728346 -1.276003 0.760050 0.562505 -6.430589 35.527092 -30.057771 -39.442891 0.000306 -85.720117 0.000275 0.000000 0.000000 0.000000 5.701237 -1.728346 -1.276003 1.027782 -1.317201 16.922883 -40.688110 51.045272 54.314778 179.998926 83.722990 -179.998953 0.000000 0.000000 0.000000 
0.797589 112.087318 1.552658 0.000000 0.000000 0.000000 -92.555579 1.015194 4.050353 -7.188011 12.527383 16.659711 10.709392 6.747695 4.512277 38.227520 28.833586 -33.186137 0.000000 0.000000 0.000000 -92.555579 1.015194 4.050353 -13.224204 -15.207761 -21.809976 15.758650 -5.166403 -7.065949 37.185961 -29.662241 33.981530 0.000000 0.000000 0.000000 -92.555579 1.015194 4.050353 0.000000 0.000000 0.000000 4.355817 -0.633890 0.379527 5.741221 -1.614428 -1.434076 0.000000 0.000000 0.000000 5.800139 -1.697063 -1.268541 -0.461287 -0.128489 0.644371 0.000000 0.000000 0.000000 5.800139 -1.697063 -1.268541 0.730867 0.865163 -6.431354 35.443566 -30.401838 -39.212352 0.000206 -85.600739 0.000245 0.000000 0.000000 0.000000 5.800139 -1.697063 -1.268541 1.005625 -1.118329 16.941360 -37.746596 51.194505 51.832963 179.999445 83.449284 -179.999445 0.000000 0.000000 0.000000 
0.764405 112.099770 1.631760 0.000000 0.000000 0.000000 -92.296777 0.932260 3.968545 -7.630681 12.382450 16.737035 10.852580 6.710307 4.574611 38.399549 28.815311 -33.192957 0.000000 0.000000 0.000000 -92.296777 0.932260 3.968545 -13.528968 -15.087855 -21.679586 15.694402 -5.106410 -7.092732 37.739295 -29.622411 33.949940 0.000000 0.000000 0.000000 -92.296777 0.932260 3.968545 0.000000 0.000000 0.000000 4.416377 -0.614778 0.388598 5.867107 -1.581050 -1.411876 0.000000 0.000000 0.000000 5.925942 -1.662775 -1.258305 -0.133148 -0.108196 0.581807 0.000000 0.000000 0.000000 5.925942 -1.662775 -1.258305 0.715535 1.143695 -6.451488 35.406587 -30.786480 -38.841657 0.000752 -85.485985 0.000792 0.000000 0.000000 0.000000 5.925942 -1.662775 -1.258305 1.004928 -0.969047 16.977820 -33.887287 51.346767 48.871653 179.998680 82.877700 -179.998707 0.000000 0.000000 0.000000 
